<svg height="511pt" viewBox="0 0 511 511.872" width="511pt" xmlns="http://www.w3.org/2000/svg"><path d="m384.140625 309.332031c0 100.148438-81.1875 181.335938-181.332031 181.335938-100.148438 0-181.335938-81.1875-181.335938-181.335938 0-100.144531 81.1875-181.332031 181.335938-181.332031 100.144531 0 181.332031 81.1875 181.332031 181.332031zm0 0" fill="#ffc107"/><path d="m384.140625 74.667969c0 29.453125-23.878906 53.332031-53.332031 53.332031-29.457032 0-53.335938-23.878906-53.335938-53.332031 0-29.457031 23.878906-53.335938 53.335938-53.335938 29.453125 0 53.332031 23.878907 53.332031 53.335938zm0 0" fill="#ffc107"/><path d="m512.140625 32c0 17.671875-14.328125 32-32 32s-32-14.328125-32-32 14.328125-32 32-32 32 14.328125 32 32zm0 0" fill="#455a64"/><path d="m202.808594 490.667969c-99.992188 0-181.335938-81.34375-181.335938-181.335938 0-99.988281 81.34375-181.332031 181.335938-181.332031 99.988281 0 181.332031 81.34375 181.332031 181.332031 0 99.992188-81.34375 181.335938-181.332031 181.335938zm0-341.335938c-88.234375 0-160 71.765625-160 160s71.765625 160 160 160 160-71.765625 160-160c0-88.210937-71.765625-160-160-160zm0 0"/><path d="m370.59375 511.871094c-18.558594 0-43.753906-9.449219-75.390625-28.308594-44.289063-26.410156-96.535156-68.863281-147.160156-119.464844-92.96875-92.992187-175.933594-210.199218-138.34375-247.789062 24.511719-24.511719 79.828125 3.179687 121.898437 30.761718 4.925782 3.222657 6.3125 9.835938 3.070313 14.765626-3.222657 4.925781-9.8125 6.3125-14.761719 3.070312-61.332031-40.191406-88.640625-39.957031-95.125-33.515625-16.535156 16.535156 28.09375 107.351563 138.367188 217.621094 49.40625 49.386719 100.203124 90.667969 143.019531 116.203125 44.820312 26.773437 68.203125 28.695312 74.644531 22.25 8.40625-8.402344 1.40625-41.917969-33.8125-95.613282-3.222656-4.929687-1.855469-11.542968 3.070312-14.761718 4.949219-3.222656 11.5625-1.878906 14.761719 3.070312 27.734375 42.28125 55.640625 97.855469 31.085938 122.410156-6.253907 6.207032-14.699219 9.300782-25.324219 9.300782zm0 0"/><path d="m330.808594 128c-29.398438 0-53.335938-23.9375-53.335938-53.332031 0-29.398438 23.9375-53.335938 53.335938-53.335938 29.394531 0 53.332031 23.9375 53.332031 53.335938 0 29.394531-23.914063 53.332031-53.332031 53.332031zm0-85.332031c-17.644532 0-32 14.355469-32 32 0 17.640625 14.355468 32 32 32 17.640625 0 32-14.359375 32-32 0-17.644531-14.359375-32-32-32zm0 0"/><path d="m480.140625 64c-17.644531 0-32-14.355469-32-32s14.355469-32 32-32 32 14.355469 32 32-14.355469 32-32 32zm0-42.667969c-5.886719 0-10.667969 4.78125-10.667969 10.667969s4.78125 10.667969 10.667969 10.667969 10.667969-4.78125 10.667969-10.667969-4.78125-10.667969-10.667969-10.667969zm0 0"/></svg>