<svg height="512pt" viewBox="0 0 512.0095 512" width="512pt" xmlns="http://www.w3.org/2000/svg"><g fill="#90a4ae"><path d="m96 458.652344c0 23.5625-19.101562 42.664062-42.667969 42.664062-23.5625 0-42.664062-19.101562-42.664062-42.664062 0-23.566406 19.101562-42.667969 42.664062-42.667969 23.566407 0 42.667969 19.101563 42.667969 42.667969zm0 0"/><path d="m288 458.652344c0 23.5625-19.101562 42.664062-42.667969 42.664062-23.5625 0-42.664062-19.101562-42.664062-42.664062 0-23.566406 19.101562-42.667969 42.664062-42.667969 23.566407 0 42.667969 19.101563 42.667969 42.667969zm0 0"/><path d="m480 458.652344c0 23.5625-19.101562 42.664062-42.667969 42.664062-23.5625 0-42.664062-19.101562-42.664062-42.664062 0-23.566406 19.101562-42.667969 42.664062-42.667969 23.566407 0 42.667969 19.101563 42.667969 42.667969zm0 0"/></g><path d="m438.65625 256.070312-170.667969-21.332031c-.425781-.066406-.875-.085937-1.320312-.085937h-192c-17.644531 0-32 14.355468-32 32v85.332031c0 17.644531 14.355469 32 32 32h341.332031c17.644531 0 32-14.355469 32-32v-85.332031c0-5.375-4.011719-9.921875-9.34375-10.582032zm0 0" fill="#cfd8dc"/><path d="m183.082031 21.46875-128-21.335938c-3.050781-.46875-6.25.34375-8.640625 2.390626-2.410156 2.003906-3.773437 4.992187-3.773437 8.128906v64c0 5.886718 4.777343 10.664062 10.664062 10.664062h128c5.890625 0 10.667969-4.777344 10.667969-10.664062v-42.667969c0-5.226563-3.777344-9.664063-8.917969-10.515625zm0 0" fill="#cfd8dc"/><path d="m202.667969 181.316406h213.332031l85.332031 85.335938h-213.332031zm0 0" fill="#455a64"/><path d="m160 277.316406h-64c-5.886719 0-10.667969 4.78125-10.667969 10.667969v42.667969c0 5.886718 4.78125 10.664062 10.667969 10.664062h64c5.886719 0 10.667969-4.777344 10.667969-10.664062v-42.667969c0-5.886719-4.78125-10.667969-10.667969-10.667969zm0 0" fill="#607d8b"/><path d="m53.332031 511.984375c-29.417969 0-53.332031-23.9375-53.332031-53.332031 0-29.398438 23.914062-53.335938 53.332031-53.335938 29.421875 0 53.335938 23.9375 53.335938 53.335938 0 29.394531-23.914063 53.332031-53.335938 53.332031zm0-85.332031c-17.640625 0-32 14.355468-32 32 0 17.640625 14.359375 32 32 32 17.644531 0 32-14.359375 32-32 0-17.644532-14.355469-32-32-32zm0 0"/><path d="m245.332031 511.984375c-29.417969 0-53.332031-23.9375-53.332031-53.332031 0-29.398438 23.914062-53.335938 53.332031-53.335938 29.421875 0 53.335938 23.9375 53.335938 53.335938 0 29.394531-23.914063 53.332031-53.335938 53.332031zm0-85.332031c-17.640625 0-32 14.355468-32 32 0 17.640625 14.359375 32 32 32 17.644531 0 32-14.359375 32-32 0-17.644532-14.355469-32-32-32zm0 0"/><path d="m437.332031 511.984375c-29.417969 0-53.332031-23.9375-53.332031-53.332031 0-29.398438 23.914062-53.335938 53.332031-53.335938 29.421875 0 53.335938 23.9375 53.335938 53.335938 0 29.394531-23.914063 53.332031-53.335938 53.332031zm0-85.332031c-17.640625 0-32 14.355468-32 32 0 17.640625 14.359375 32 32 32 17.644531 0 32-14.359375 32-32 0-17.644532-14.355469-32-32-32zm0 0"/><path d="m416 383.984375h-341.332031c-17.644531 0-32-14.355469-32-32v-85.332031c0-17.644532 14.355469-32 32-32h192c5.886719 0 10.664062 4.777344 10.664062 10.664062 0 5.890625-4.777343 10.667969-10.664062 10.667969h-192c-5.867188 0-10.667969 4.777344-10.667969 10.667969v85.332031c0 5.886719 4.800781 10.667969 10.667969 10.667969h341.332031c5.867188 0 10.667969-4.78125 10.667969-10.667969v-85.332031c0-5.890625 4.777343-10.667969 10.664062-10.667969 5.890625 0 10.667969 4.777344 10.667969 10.667969v85.332031c0 17.644531-14.355469 32-32 32zm0 0"/><path d="m96 469.316406c-2.730469 0-5.460938-1.042968-7.550781-3.113281-4.160157-4.160156-4.160157-10.921875 0-15.082031l85.332031-85.332032c4.160156-4.160156 10.921875-4.160156 15.082031 0 4.160157 4.160157 4.160157 10.921876 0 15.082032l-85.332031 85.332031c-2.070312 2.070313-4.800781 3.113281-7.53125 3.113281zm0 0"/><path d="m394.667969 469.316406c-2.730469 0-5.460938-1.042968-7.554688-3.113281l-85.332031-85.332031c-4.160156-4.160156-4.160156-10.921875 0-15.082032 4.160156-4.160156 10.921875-4.160156 15.082031 0l85.335938 85.332032c4.15625 4.160156 4.15625 10.921875 0 15.082031-2.070313 2.070313-4.800781 3.113281-7.53125 3.113281zm0 0"/><path d="m245.332031 426.652344c-5.886719 0-10.664062-4.78125-10.664062-10.667969v-42.667969c0-5.886718 4.777343-10.664062 10.664062-10.664062 5.890625 0 10.667969 4.777344 10.667969 10.664062v42.667969c0 5.886719-4.777344 10.667969-10.667969 10.667969zm0 0"/><path d="m138.667969 255.984375c-5.890625 0-10.667969-4.777344-10.667969-10.667969v-170.664062c0-5.890625 4.777344-10.667969 10.667969-10.667969 5.886719 0 10.664062 4.777344 10.664062 10.667969v170.664062c0 5.890625-4.777343 10.667969-10.664062 10.667969zm0 0"/><path d="m181.332031 85.316406h-128c-5.886719 0-10.664062-4.777344-10.664062-10.664062v-64c0-3.136719 1.363281-6.125 3.773437-8.128906 2.390625-2.027344 5.570313-2.859376 8.640625-2.390626l128 21.335938c5.140625.851562 8.917969 5.289062 8.917969 10.515625v42.667969c0 5.886718-4.777344 10.664062-10.667969 10.664062zm-117.332031-21.332031h106.667969v-22.976563l-106.667969-17.769531zm0 0"/><path d="m501.332031 277.316406h-213.332031c-2.835938 0-5.546875-1.128906-7.550781-3.113281l-85.335938-85.332031c-3.027343-3.074219-3.945312-7.636719-2.300781-11.628906 1.640625-3.988282 5.542969-6.589844 9.855469-6.589844h213.332031c2.835938 0 5.546875 1.128906 7.550781 3.113281l85.335938 85.332031c3.050781 3.050782 3.964843 7.640625 2.300781 11.628906-1.664062 3.988282-5.542969 6.589844-9.855469 6.589844zm-208.917969-21.332031h183.171876l-64-64h-183.171876zm0 0"/><path d="m394.667969 277.316406c-2.730469 0-5.460938-1.042968-7.554688-3.113281l-85.332031-85.332031c-4.160156-4.160156-4.160156-10.921875 0-15.082032 4.160156-4.160156 10.921875-4.160156 15.082031 0l85.335938 85.332032c4.15625 4.160156 4.15625 10.921875 0 15.082031-2.070313 2.070313-4.800781 3.113281-7.53125 3.113281zm0 0"/><path d="m309.332031 341.316406c-5.886719 0-10.664062-4.777344-10.664062-10.664062v-21.335938c0-5.886718 4.777343-10.664062 10.664062-10.664062 5.890625 0 10.667969 4.777344 10.667969 10.664062v21.335938c0 5.886718-4.777344 10.664062-10.667969 10.664062zm0 0"/><path d="m352 341.316406c-5.886719 0-10.667969-4.777344-10.667969-10.664062v-21.335938c0-5.886718 4.78125-10.664062 10.667969-10.664062s10.667969 4.777344 10.667969 10.664062v21.335938c0 5.886718-4.78125 10.664062-10.667969 10.664062zm0 0"/><path d="m394.667969 341.316406c-5.890625 0-10.667969-4.777344-10.667969-10.664062v-21.335938c0-5.886718 4.777344-10.664062 10.667969-10.664062 5.886719 0 10.664062 4.777344 10.664062 10.664062v21.335938c0 5.886718-4.777343 10.664062-10.664062 10.664062zm0 0"/><path d="m160 341.316406h-64c-5.886719 0-10.667969-4.777344-10.667969-10.664062v-42.667969c0-5.886719 4.78125-10.667969 10.667969-10.667969h64c5.886719 0 10.667969 4.78125 10.667969 10.667969v42.667969c0 5.886718-4.78125 10.664062-10.667969 10.664062zm-53.332031-21.332031h42.664062v-21.332031h-42.664062zm0 0"/></svg>